<svg xmlns="http://www.w3.org/2000/svg" xmlns:xlink="http://www.w3.org/1999/xlink" width="300" zoomAndPan="magnify" viewBox="0 0 224.87999 374.999991" height="500" preserveAspectRatio="xMidYMid meet" version="1.0"><defs><clipPath id="d88c8426bd"><path d="M 49 224 L 108 224 L 108 264 L 49 264 Z M 49 224 " clip-rule="nonzero"/></clipPath><clipPath id="336837fa6b"><path d="M 112.433594 144.210938 L 106.714844 265.511719 L 49.058594 262.792969 L 54.78125 141.492188 Z M 112.433594 144.210938 " clip-rule="nonzero"/></clipPath><clipPath id="e6c5fbce24"><path d="M 112.433594 144.210938 L 106.714844 265.511719 L 49.058594 262.792969 L 54.78125 141.492188 Z M 112.433594 144.210938 " clip-rule="nonzero"/></clipPath><clipPath id="e6b2c6151d"><path d="M 112.433594 144.210938 L 106.714844 265.511719 L 49.058594 262.792969 L 54.78125 141.492188 Z M 112.433594 144.210938 " clip-rule="nonzero"/></clipPath><clipPath id="0ba4c8bf75"><path d="M 82 240 L 93 240 L 93 253 L 82 253 Z M 82 240 " clip-rule="nonzero"/></clipPath><clipPath id="f4c754d527"><path d="M 112.433594 144.210938 L 106.714844 265.511719 L 49.058594 262.792969 L 54.78125 141.492188 Z M 112.433594 144.210938 " clip-rule="nonzero"/></clipPath><clipPath id="0933f5e6aa"><path d="M 112.433594 144.210938 L 106.714844 265.511719 L 49.058594 262.792969 L 54.78125 141.492188 Z M 112.433594 144.210938 " clip-rule="nonzero"/></clipPath><clipPath id="6723054569"><path d="M 112.433594 144.210938 L 106.714844 265.511719 L 49.058594 262.792969 L 54.78125 141.492188 Z M 112.433594 144.210938 " clip-rule="nonzero"/></clipPath><clipPath id="1aac353d5f"><path d="M 91 238 L 97 238 L 97 244 L 91 244 Z M 91 238 " clip-rule="nonzero"/></clipPath><clipPath id="d457268e6e"><path d="M 112.433594 144.210938 L 106.714844 265.511719 L 49.058594 262.792969 L 54.78125 141.492188 Z M 112.433594 144.210938 " clip-rule="nonzero"/></clipPath><clipPath id="fe58027d9c"><path d="M 112.433594 144.210938 L 106.714844 265.511719 L 49.058594 262.792969 L 54.78125 141.492188 Z M 112.433594 144.210938 " clip-rule="nonzero"/></clipPath><clipPath id="13d9fefcad"><path d="M 112.433594 144.210938 L 106.714844 265.511719 L 49.058594 262.792969 L 54.78125 141.492188 Z M 112.433594 144.210938 " clip-rule="nonzero"/></clipPath><clipPath id="a6f9535449"><path d="M 94 249 L 100 249 L 100 254 L 94 254 Z M 94 249 " clip-rule="nonzero"/></clipPath><clipPath id="fbed5bf664"><path d="M 112.433594 144.210938 L 106.714844 265.511719 L 49.058594 262.792969 L 54.78125 141.492188 Z M 112.433594 144.210938 " clip-rule="nonzero"/></clipPath><clipPath id="a721c2e135"><path d="M 112.433594 144.210938 L 106.714844 265.511719 L 49.058594 262.792969 L 54.78125 141.492188 Z M 112.433594 144.210938 " clip-rule="nonzero"/></clipPath><clipPath id="35e193a9ab"><path d="M 112.433594 144.210938 L 106.714844 265.511719 L 49.058594 262.792969 L 54.78125 141.492188 Z M 112.433594 144.210938 " clip-rule="nonzero"/></clipPath><clipPath id="2aff85fd1e"><path d="M 87 253 L 92 253 L 92 259 L 87 259 Z M 87 253 " clip-rule="nonzero"/></clipPath><clipPath id="8fe63fd9cf"><path d="M 112.433594 144.210938 L 106.714844 265.511719 L 49.058594 262.792969 L 54.78125 141.492188 Z M 112.433594 144.210938 " clip-rule="nonzero"/></clipPath><clipPath id="ec8c4ce086"><path d="M 112.433594 144.210938 L 106.714844 265.511719 L 49.058594 262.792969 L 54.78125 141.492188 Z M 112.433594 144.210938 " clip-rule="nonzero"/></clipPath><clipPath id="338b409098"><path d="M 112.433594 144.210938 L 106.714844 265.511719 L 49.058594 262.792969 L 54.78125 141.492188 Z M 112.433594 144.210938 " clip-rule="nonzero"/></clipPath><clipPath id="48fc2bcc71"><path d="M 52 144 L 111 144 L 111 186 L 52 186 Z M 52 144 " clip-rule="nonzero"/></clipPath><clipPath id="de39a3190f"><path d="M 112.433594 144.210938 L 106.714844 265.511719 L 49.058594 262.792969 L 54.78125 141.492188 Z M 112.433594 144.210938 " clip-rule="nonzero"/></clipPath><clipPath id="f9c1d7a6a2"><path d="M 112.433594 144.210938 L 106.714844 265.511719 L 49.058594 262.792969 L 54.78125 141.492188 Z M 112.433594 144.210938 " clip-rule="nonzero"/></clipPath><clipPath id="ea9cd0b121"><path d="M 112.433594 144.210938 L 106.714844 265.511719 L 49.058594 262.792969 L 54.78125 141.492188 Z M 112.433594 144.210938 " clip-rule="nonzero"/></clipPath><clipPath id="324615bb39"><path d="M 87 155 L 97 155 L 97 168 L 87 168 Z M 87 155 " clip-rule="nonzero"/></clipPath><clipPath id="ced196ffd2"><path d="M 112.433594 144.210938 L 106.714844 265.511719 L 49.058594 262.792969 L 54.78125 141.492188 Z M 112.433594 144.210938 " clip-rule="nonzero"/></clipPath><clipPath id="85b9fa118a"><path d="M 112.433594 144.210938 L 106.714844 265.511719 L 49.058594 262.792969 L 54.78125 141.492188 Z M 112.433594 144.210938 " clip-rule="nonzero"/></clipPath><clipPath id="fd53b1c3ca"><path d="M 112.433594 144.210938 L 106.714844 265.511719 L 49.058594 262.792969 L 54.78125 141.492188 Z M 112.433594 144.210938 " clip-rule="nonzero"/></clipPath><clipPath id="1bd5baabbf"><path d="M 95 165 L 100 165 L 100 171 L 95 171 Z M 95 165 " clip-rule="nonzero"/></clipPath><clipPath id="26139b2f1b"><path d="M 112.433594 144.210938 L 106.714844 265.511719 L 49.058594 262.792969 L 54.78125 141.492188 Z M 112.433594 144.210938 " clip-rule="nonzero"/></clipPath><clipPath id="51d31f3150"><path d="M 112.433594 144.210938 L 106.714844 265.511719 L 49.058594 262.792969 L 54.78125 141.492188 Z M 112.433594 144.210938 " clip-rule="nonzero"/></clipPath><clipPath id="0cc16b0020"><path d="M 112.433594 144.210938 L 106.714844 265.511719 L 49.058594 262.792969 L 54.78125 141.492188 Z M 112.433594 144.210938 " clip-rule="nonzero"/></clipPath><clipPath id="46ec499a0c"><path d="M 99 155 L 105 155 L 105 161 L 99 161 Z M 99 155 " clip-rule="nonzero"/></clipPath><clipPath id="c8e966bc33"><path d="M 112.433594 144.210938 L 106.714844 265.511719 L 49.058594 262.792969 L 54.78125 141.492188 Z M 112.433594 144.210938 " clip-rule="nonzero"/></clipPath><clipPath id="c5414a11df"><path d="M 112.433594 144.210938 L 106.714844 265.511719 L 49.058594 262.792969 L 54.78125 141.492188 Z M 112.433594 144.210938 " clip-rule="nonzero"/></clipPath><clipPath id="84c0b21452"><path d="M 112.433594 144.210938 L 106.714844 265.511719 L 49.058594 262.792969 L 54.78125 141.492188 Z M 112.433594 144.210938 " clip-rule="nonzero"/></clipPath><clipPath id="49d730940e"><path d="M 93 149 L 98 149 L 98 155 L 93 155 Z M 93 149 " clip-rule="nonzero"/></clipPath><clipPath id="6be7cbc0c3"><path d="M 112.433594 144.210938 L 106.714844 265.511719 L 49.058594 262.792969 L 54.78125 141.492188 Z M 112.433594 144.210938 " clip-rule="nonzero"/></clipPath><clipPath id="08031e9f32"><path d="M 112.433594 144.210938 L 106.714844 265.511719 L 49.058594 262.792969 L 54.78125 141.492188 Z M 112.433594 144.210938 " clip-rule="nonzero"/></clipPath><clipPath id="748ec017e5"><path d="M 112.433594 144.210938 L 106.714844 265.511719 L 49.058594 262.792969 L 54.78125 141.492188 Z M 112.433594 144.210938 " clip-rule="nonzero"/></clipPath><clipPath id="9ee729bd50"><path d="M 8 101 L 68 101 L 68 291 L 8 291 Z M 8 101 " clip-rule="nonzero"/></clipPath><clipPath id="62aee131f3"><path d="M 224.867188 59.808594 L 150.421875 384.964844 L -76.824219 332.9375 L -2.375 7.777344 Z M 224.867188 59.808594 " clip-rule="nonzero"/></clipPath><clipPath id="995d2b7688"><path d="M 224.867188 59.808594 L 150.421875 384.964844 L -76.824219 332.9375 L -2.375 7.777344 Z M 224.867188 59.808594 " clip-rule="nonzero"/></clipPath><clipPath id="e9ce6ea395"><path d="M 224.867188 59.808594 L 150.421875 384.964844 L -76.824219 332.9375 L -2.375 7.777344 Z M 224.867188 59.808594 " clip-rule="nonzero"/></clipPath><clipPath id="a8dbb1b77a"><path d="M 0 16 L 186 16 L 186 353 L 0 353 Z M 0 16 " clip-rule="nonzero"/></clipPath><clipPath id="db2126ae8d"><path d="M 224.867188 59.808594 L 150.421875 384.964844 L -76.824219 332.9375 L -2.375 7.777344 Z M 224.867188 59.808594 " clip-rule="nonzero"/></clipPath><clipPath id="17056be48e"><path d="M 224.867188 59.808594 L 150.421875 384.964844 L -76.824219 332.9375 L -2.375 7.777344 Z M 224.867188 59.808594 " clip-rule="nonzero"/></clipPath><clipPath id="3385d4c0c8"><path d="M 224.867188 59.808594 L 150.421875 384.964844 L -76.824219 332.9375 L -2.375 7.777344 Z M 224.867188 59.808594 " clip-rule="nonzero"/></clipPath></defs><g clip-path="url(#d88c8426bd)"><g clip-path="url(#336837fa6b)"><g clip-path="url(#e6c5fbce24)"><g clip-path="url(#e6b2c6151d)"><path fill="#000000" d="M 86.792969 261.796875 C 85.320312 260.421875 84.671875 258.726562 83.90625 256.925781 C 83.429688 255.800781 82.960938 255.261719 81.761719 254.921875 C 80.65625 254.605469 79.542969 254.339844 78.429688 254.046875 C 68.988281 251.570312 59.542969 249.085938 50.101562 246.597656 C 50.015625 246.574219 49.933594 246.546875 49.859375 246.511719 L 50.890625 224.648438 C 57.457031 227.003906 72.027344 232.59375 75.941406 233.707031 C 78.339844 234.386719 81.042969 235.511719 83.558594 235.550781 C 86.03125 235.589844 88.039062 233.515625 90.328125 232.835938 C 94.011719 231.742188 98.5625 233.523438 99.835938 237.304688 C 100.5625 239.441406 100.066406 241.792969 98.761719 243.519531 C 103.011719 244.640625 106.96875 246.902344 107.117188 251.914062 C 107.199219 254.71875 105.335938 257.15625 102.605469 257.839844 C 101.222656 258.1875 99.808594 258.101562 98.421875 257.785156 C 98.515625 259.5625 97.816406 261.414062 96.351562 262.570312 C 93.433594 264.871094 89.394531 264.226562 86.792969 261.796875 " fill-opacity="1" fill-rule="nonzero"/></g></g></g></g><g clip-path="url(#0ba4c8bf75)"><g clip-path="url(#f4c754d527)"><g clip-path="url(#0933f5e6aa)"><g clip-path="url(#6723054569)"><path fill="#d7a790" d="M 86.753906 251.355469 C 86.941406 251.042969 87.144531 249.839844 87.4375 249.6875 C 87.605469 249.597656 88.921875 249.984375 89.183594 250.019531 C 89.65625 250.089844 90.140625 250.199219 90.617188 250.152344 C 92.367188 249.984375 92.5 248.054688 91.71875 246.828125 C 91.125 245.894531 90.023438 245.488281 89.199219 244.808594 C 89.1875 244.40625 89.21875 243.996094 89.195312 243.6875 C 89.117188 242.785156 88.886719 241.863281 88.230469 241.195312 C 87.019531 239.96875 84.929688 240.183594 84.191406 241.785156 C 83.84375 242.53125 83.859375 243.394531 83.917969 244.199219 C 84.007812 245.320312 84.246094 246.007812 83.597656 247.003906 C 82.644531 248.46875 81.570312 250.308594 83.105469 251.839844 C 84.230469 252.964844 85.953125 252.667969 86.753906 251.355469 " fill-opacity="1" fill-rule="nonzero"/></g></g></g></g><g clip-path="url(#1aac353d5f)"><g clip-path="url(#d457268e6e)"><g clip-path="url(#fe58027d9c)"><g clip-path="url(#13d9fefcad)"><path fill="#d7a790" d="M 94.984375 242.683594 C 96.371094 241.957031 96.875 240.007812 95.59375 238.921875 C 95.101562 238.507812 94.445312 238.34375 93.835938 238.539062 C 93.804688 238.546875 93.773438 238.546875 93.742188 238.554688 C 93.433594 238.625 93.113281 238.761719 92.839844 238.921875 C 92.085938 239.355469 91.546875 239.988281 91.445312 240.867188 C 91.34375 241.753906 91.941406 242.585938 92.757812 242.882812 C 93.472656 243.140625 94.316406 243.035156 94.984375 242.683594 " fill-opacity="1" fill-rule="nonzero"/></g></g></g></g><g clip-path="url(#a6f9535449)"><g clip-path="url(#fbed5bf664)"><g clip-path="url(#a721c2e135)"><g clip-path="url(#35e193a9ab)"><path fill="#d7a790" d="M 97.949219 253.605469 C 97.972656 253.605469 97.996094 253.609375 98.019531 253.609375 C 98.363281 253.601562 98.683594 253.496094 98.953125 253.320312 C 99.171875 253.191406 99.355469 253.015625 99.480469 252.789062 C 99.492188 252.773438 99.503906 252.757812 99.515625 252.742188 C 99.789062 252.289062 99.855469 251.734375 99.71875 251.226562 C 99.5625 250.65625 99.140625 250.289062 98.695312 249.9375 C 97.898438 249.316406 96.789062 248.914062 95.8125 249.371094 C 94.75 249.871094 94.539062 251.042969 95.074219 252.011719 C 95.46875 252.71875 96.160156 253.261719 96.933594 253.496094 C 97.242188 253.585938 97.597656 253.628906 97.949219 253.605469 " fill-opacity="1" fill-rule="nonzero"/></g></g></g></g><g clip-path="url(#2aff85fd1e)"><g clip-path="url(#8fe63fd9cf)"><g clip-path="url(#ec8c4ce086)"><g clip-path="url(#338b409098)"><path fill="#d7a790" d="M 91.417969 258.320312 C 91.753906 257.976562 91.882812 257.535156 91.867188 257.09375 C 91.964844 256.011719 91.351562 254.796875 90.472656 254.230469 C 89.714844 253.742188 88.722656 253.753906 88.058594 254.390625 C 87.402344 255.019531 87.390625 255.992188 87.738281 256.773438 C 88.332031 258.097656 90.058594 259.703125 91.417969 258.320312 " fill-opacity="1" fill-rule="nonzero"/></g></g></g></g><g clip-path="url(#48fc2bcc71)"><g clip-path="url(#de39a3190f)"><g clip-path="url(#f9c1d7a6a2)"><g clip-path="url(#ea9cd0b121)"><path fill="#000000" d="M 52.75 185.164062 L 53.820312 162.488281 C 53.847656 162.480469 53.871094 162.472656 53.898438 162.464844 C 63.296875 159.8125 72.695312 157.171875 82.09375 154.539062 C 83.195312 154.230469 84.308594 153.941406 85.40625 153.605469 C 86.601562 153.242188 87.0625 152.703125 87.519531 151.570312 C 88.253906 149.753906 88.871094 148.050781 90.316406 146.648438 C 92.875 144.175781 96.902344 143.464844 99.859375 145.714844 C 101.34375 146.84375 102.078125 148.683594 102.015625 150.464844 C 103.394531 150.128906 104.808594 150.015625 106.195312 150.339844 C 108.9375 150.976562 110.847656 153.382812 110.8125 156.1875 C 110.75 161.203125 106.835938 163.527344 102.605469 164.726562 C 103.941406 166.425781 104.472656 168.769531 103.792969 170.917969 C 102.582031 174.722656 98.058594 176.578125 94.363281 175.546875 C 92.058594 174.90625 90.019531 172.867188 87.542969 172.945312 C 85.027344 173.027344 82.347656 174.199219 79.960938 174.917969 C 75.859375 176.160156 59.027344 182.863281 52.75 185.164062 " fill-opacity="1" fill-rule="nonzero"/></g></g></g></g><g clip-path="url(#324615bb39)"><g clip-path="url(#ced196ffd2)"><g clip-path="url(#85b9fa118a)"><g clip-path="url(#fd53b1c3ca)"><path fill="#d7a790" d="M 88.195312 155.964844 C 86.484375 157.300781 87.328125 159.253906 88.097656 160.828125 C 88.617188 161.894531 88.296875 162.546875 88.074219 163.648438 C 87.914062 164.4375 87.792969 165.296875 88.046875 166.078125 C 88.589844 167.757812 90.636719 168.226562 91.988281 167.152344 C 92.71875 166.570312 93.0625 165.683594 93.246094 164.796875 C 93.3125 164.492188 93.332031 164.082031 93.386719 163.683594 C 94.292969 163.109375 95.433594 162.84375 96.136719 161.984375 C 97.058594 160.863281 97.164062 158.929688 95.445312 158.550781 C 94.976562 158.449219 94.484375 158.5 94.007812 158.507812 C 93.742188 158.515625 92.390625 158.738281 92.234375 158.628906 C 91.960938 158.441406 91.90625 157.222656 91.757812 156.890625 C 91.125 155.488281 89.449219 154.984375 88.195312 155.964844 " fill-opacity="1" fill-rule="nonzero"/></g></g></g></g><g clip-path="url(#1bd5baabbf)"><g clip-path="url(#26139b2f1b)"><g clip-path="url(#51d31f3150)"><g clip-path="url(#0cc16b0020)"><path fill="#d7a790" d="M 96.683594 166.03125 C 95.839844 166.222656 95.144531 166.976562 95.136719 167.867188 C 95.132812 168.753906 95.589844 169.445312 96.285156 169.96875 C 96.539062 170.164062 96.839844 170.335938 97.136719 170.445312 C 97.167969 170.457031 97.195312 170.460938 97.226562 170.472656 C 97.808594 170.738281 98.480469 170.65625 99.019531 170.304688 C 100.425781 169.382812 100.160156 167.386719 98.875 166.496094 C 98.253906 166.066406 97.429688 165.859375 96.683594 166.03125 " fill-opacity="1" fill-rule="nonzero"/></g></g></g></g><g clip-path="url(#46ec499a0c)"><g clip-path="url(#c8e966bc33)"><g clip-path="url(#c5414a11df)"><g clip-path="url(#84c0b21452)"><path fill="#d7a790" d="M 103.144531 156.015625 C 103.167969 156.015625 103.191406 156.015625 103.214844 156.019531 C 103.554688 156.070312 103.859375 156.210938 104.109375 156.421875 C 104.304688 156.574219 104.46875 156.773438 104.566406 157.011719 C 104.574219 157.03125 104.585938 157.046875 104.59375 157.0625 C 104.8125 157.546875 104.808594 158.105469 104.609375 158.589844 C 104.386719 159.140625 103.921875 159.453125 103.4375 159.746094 C 102.570312 160.265625 101.417969 160.53125 100.507812 159.957031 C 99.515625 159.332031 99.445312 158.144531 100.097656 157.25 C 100.570312 156.597656 101.328125 156.140625 102.121094 156.003906 C 102.4375 155.949219 102.796875 155.949219 103.144531 156.015625 " fill-opacity="1" fill-rule="nonzero"/></g></g></g></g><g clip-path="url(#49d730940e)"><g clip-path="url(#6be7cbc0c3)"><g clip-path="url(#08031e9f32)"><g clip-path="url(#748ec017e5)"><path fill="#d7a790" d="M 93.394531 151.628906 C 92.953125 152.363281 92.847656 153.332031 93.421875 154.035156 C 94.003906 154.746094 94.988281 154.878906 95.796875 154.488281 C 96.738281 154.03125 97.496094 152.898438 97.53125 151.816406 C 97.601562 151.375 97.527344 150.925781 97.234375 150.542969 C 96.054688 149.003906 94.144531 150.386719 93.394531 151.628906 " fill-opacity="1" fill-rule="nonzero"/></g></g></g></g><g clip-path="url(#9ee729bd50)"><g clip-path="url(#62aee131f3)"><g clip-path="url(#995d2b7688)"><g clip-path="url(#e9ce6ea395)"><path fill="#e4e4e3" d="M 62.570312 142.511719 C 58.355469 147.46875 51.964844 150.472656 44.964844 150.070312 C 33.105469 149.390625 24.046875 139.222656 24.726562 127.367188 C 25.410156 115.511719 35.574219 106.453125 47.433594 107.136719 C 59.054688 107.804688 67.96875 117.59375 67.671875 129.148438 C 67.691406 128.917969 67.734375 128.695312 67.746094 128.460938 C 68.5625 114.292969 57.734375 102.140625 43.558594 101.324219 C 29.386719 100.511719 17.234375 111.335938 16.421875 125.507812 C 15.609375 139.679688 26.4375 151.828125 40.609375 152.644531 C 49.488281 153.15625 57.566406 149.097656 62.570312 142.511719 Z M 51.28125 265.308594 C 51.246094 265.914062 51.710938 266.429688 52.3125 266.46875 C 52.921875 266.5 53.4375 266.039062 53.472656 265.433594 C 53.507812 264.828125 53.046875 264.308594 52.441406 264.273438 C 51.835938 264.242188 51.316406 264.703125 51.28125 265.308594 Z M 54.570312 273.660156 C 54.527344 274.4375 55.121094 275.101562 55.898438 275.148438 C 56.675781 275.195312 57.34375 274.597656 57.386719 273.824219 C 57.429688 273.042969 56.835938 272.378906 56.058594 272.332031 C 55.285156 272.289062 54.617188 272.878906 54.570312 273.660156 Z M 8.472656 263.816406 C 9.285156 249.644531 21.4375 238.820312 35.609375 239.632812 C 49.042969 240.410156 59.453125 251.363281 59.8125 264.566406 C 59.335938 253.679688 50.675781 244.707031 39.5625 244.066406 C 27.703125 243.382812 17.539062 252.445312 16.855469 264.300781 C 16.175781 276.15625 25.234375 286.320312 37.09375 287 C 48.210938 287.640625 57.839844 279.71875 59.5625 268.960938 C 57.691406 282.035156 46.09375 291.726562 32.660156 290.953125 C 18.488281 290.136719 7.65625 277.988281 8.472656 263.816406 " fill-opacity="1" fill-rule="nonzero"/></g></g></g></g><g clip-path="url(#a8dbb1b77a)"><g clip-path="url(#db2126ae8d)"><g clip-path="url(#17056be48e)"><g clip-path="url(#3385d4c0c8)"><path fill="#100f0d" d="M 57.386719 273.824219 C 57.34375 274.597656 56.675781 275.195312 55.898438 275.148438 C 55.121094 275.101562 54.527344 274.4375 54.570312 273.660156 C 54.617188 272.878906 55.285156 272.289062 56.058594 272.332031 C 56.835938 272.378906 57.429688 273.042969 57.386719 273.824219 Z M 8.472656 263.816406 C 9.285156 249.644531 21.4375 238.820312 35.609375 239.632812 C 49.042969 240.410156 59.453125 251.363281 59.8125 264.566406 C 59.335938 253.679688 50.675781 244.707031 39.5625 244.066406 C 27.703125 243.382812 17.539062 252.445312 16.855469 264.300781 C 16.175781 276.15625 25.234375 286.320312 37.09375 287 C 48.210938 287.640625 57.839844 279.71875 59.5625 268.960938 C 57.691406 282.035156 46.09375 291.726562 32.660156 290.953125 C 18.488281 290.136719 7.65625 277.988281 8.472656 263.816406 Z M 53.472656 265.433594 C 53.4375 266.039062 52.921875 266.5 52.3125 266.46875 C 51.710938 266.429688 51.246094 265.914062 51.28125 265.308594 C 51.316406 264.703125 51.835938 264.242188 52.441406 264.273438 C 53.046875 264.308594 53.507812 264.828125 53.472656 265.433594 Z M 16.421875 125.507812 C 17.234375 111.335938 29.386719 100.511719 43.558594 101.324219 C 57.734375 102.140625 68.5625 114.292969 67.746094 128.460938 C 67.734375 128.695312 67.691406 128.917969 67.671875 129.148438 C 67.96875 117.59375 59.054688 107.804688 47.433594 107.136719 C 35.574219 106.453125 25.410156 115.511719 24.726562 127.367188 C 24.046875 139.222656 33.105469 149.390625 44.964844 150.070312 C 51.964844 150.472656 58.355469 147.46875 62.570312 142.511719 C 57.566406 149.097656 49.488281 153.15625 40.609375 152.644531 C 26.4375 151.828125 15.609375 139.679688 16.421875 125.507812 Z M 60.402344 128.480469 C 60.367188 129.082031 59.851562 129.546875 59.242188 129.511719 C 58.640625 129.476562 58.175781 128.957031 58.210938 128.351562 C 58.246094 127.75 58.765625 127.285156 59.371094 127.320312 C 59.972656 127.355469 60.4375 127.875 60.402344 128.480469 Z M 61.5 136.703125 C 61.546875 135.925781 62.210938 135.332031 62.988281 135.378906 C 63.765625 135.421875 64.363281 136.089844 64.316406 136.867188 C 64.273438 137.644531 63.605469 138.238281 62.828125 138.195312 C 62.046875 138.148438 61.453125 137.480469 61.5 136.703125 Z M 36.128906 338.769531 L 47.421875 334.675781 C 60.863281 335.957031 74.082031 339.125 86.542969 344.328125 C 102.480469 350.980469 130.046875 358.027344 159.492188 345.351562 C 159.492188 345.351562 159.425781 331.175781 140.097656 310.917969 C 120.769531 290.660156 113.878906 258.832031 113.878906 258.832031 C 113.878906 258.832031 119.617188 216.550781 122.851562 180.503906 C 124.707031 159.777344 125.734375 141.113281 124.367188 133.742188 C 120.621094 113.550781 174.984375 93.226562 185.816406 68.757812 C 185.816406 68.757812 182.867188 59.300781 120.902344 43.640625 C 72.929688 31.515625 61.050781 42.933594 54.855469 37.664062 C 28.097656 14.914062 12.742188 15.394531 -4.777344 18.113281 L -3.578125 151.558594 L -1.839844 344.5625 C -1.839844 344.5625 14.867188 353.742188 36.128906 338.769531 " fill-opacity="1" fill-rule="nonzero"/></g></g></g></g></svg>